<svg width="133" height="76" viewBox="0 0 133 76" fill="none" xmlns="http://www.w3.org/2000/svg">
<path d="M128.333 66.9155C128.333 58.7736 126.729 50.7113 123.614 43.1892C120.498 35.667 115.931 28.8321 110.174 23.0749C104.416 17.3177 97.5816 12.7508 90.0594 9.635C82.5372 6.5192 74.475 4.91553 66.333 4.91553C58.191 4.91553 50.1288 6.51921 42.6066 9.635C35.0844 12.7508 28.2496 17.3177 22.4924 23.0749C16.7352 28.8321 12.1683 35.667 9.05248 43.1892C5.93668 50.7113 4.33301 58.7736 4.33301 66.9155" stroke="#EBEEF0" stroke-width="8" stroke-linecap="round"/>
<path d="M110.174 23.0749C104.416 17.3177 97.5816 12.7508 90.0594 9.635C82.5372 6.5192 74.475 4.91553 66.333 4.91553C58.191 4.91553 50.1288 6.51921 42.6066 9.635C35.0844 12.7508 28.2496 17.3177 22.4924 23.0749C16.7352 28.8321 12.1683 35.667 9.05248 43.1892C5.93668 50.7113 4.33301 58.7736 4.33301 66.9155" stroke="#00A39A" stroke-width="8" stroke-linecap="round"/>
<path d="M68.5721 51.2756V53.1956H60.3521V51.2756H68.5721Z" fill="#C1C0C0"/>
</svg>
