<svg width="161" height="84" viewBox="0 0 161 84" fill="none" xmlns="http://www.w3.org/2000/svg">
<path d="M20.3671 45.2601L1.33301 60.387V83.1466H159.333V35.3305L137.084 15.4589C134.629 13.2661 130.761 14.0031 129.284 16.945L110.475 54.4169C108.541 58.2705 102.962 58.0326 101.363 54.0283L84.3604 11.4544C82.7456 7.41093 77.0929 7.22021 75.2092 11.1456L58.1007 46.7973C56.2472 50.6597 51.68 52.3764 47.7412 50.6912L31.538 43.7585C27.8214 42.1683 23.5319 42.7449 20.3671 45.2601Z" fill="url(#paint0_linear_80_10145)" fill-opacity="0.2"/>
<path d="M1.33301 60.387L22.2353 43.7753C24.2493 42.1748 26.9789 41.8078 29.3441 42.8198L48.6218 51.068C52.0682 52.5426 56.0645 51.0404 57.6863 47.6608L75.2092 11.1456C77.0929 7.22021 82.7456 7.41093 84.3604 11.4544L101.363 54.0282C102.962 58.0326 108.541 58.2705 110.475 54.4169L129.284 16.945C130.761 14.0031 134.629 13.2661 137.084 15.4589L159.333 35.3305" stroke="#71DD37" stroke-width="2" stroke-linecap="round"/>
<defs>
<linearGradient id="paint0_linear_80_10145" x1="80.333" y1="0.87793" x2="80.333" y2="83.1466" gradientUnits="userSpaceOnUse">
<stop stop-color="#00FFCE"/>
<stop offset="1" stop-color="#71DD37" stop-opacity="0"/>
</linearGradient>
</defs>
</svg>
